<?xml version="1.0" standalone="no"?><svg width="854.2660961151123" height="625.9633541107178" xmlns="http://www.w3.org/2000/svg" xmlns:xlink="http://www.w3.org/1999/xlink"><style>line.bg { stroke: rgba(3, 148, 172, 0.7); stroke-width: 1; }circle.bg { fill: rgba(100, 220, 240, 0.7); }line.bg-sub { stroke: rgba(140, 240, 240, 0.5); stroke-width: 1; }g.u rect, g.u path, g.u circle { fill: none; stroke-width: 2; stroke-linejoin: round; }pattern line { vector-effect: non-scaling-stroke; }.zoomed-out pattern line { vector-effect: none; }text { stroke-width: 0; font-family: sans-serif; }text tspan { vector-effect: non-scaling-stroke; white-space: pre; }.ui-dark { background: rgb(51, 51, 51); }.ui-dark line.bg { stroke: rgba(172, 232, 242, 0.57); stroke-width: 1; }.ui-dark circle.bg { fill: rgba(100, 220, 240, 0.3); }.ui-dark line.bg-sub { stroke: rgba(140, 240, 240, 0.1); stroke-width: 1; }rect.marquee { fill: rgba(234, 255, 231, 0.3); stroke: rgb(98, 137, 95); stroke-width: 1; stroke-dasharray: 4; vector-effect: non-scaling-stroke; }rect.highlight { fill: blue; opacity: 0.5; }.bg rect { stroke: rgba(3, 148, 172, 0.7); stroke-width: 1; }</style><defs class="ic"></defs><defs><marker id="arrowhead" viewBox="0 0 15 15" refX="5" refY="5" markerWidth="5" markerHeight="5" orient="auto-start-reverse"><path stroke="context-stroke" fill="context-stroke" d="M 0 0 L 10 5 L 0 10 z"></path></marker></defs><g transform="translate(-217.62228679656982, -192.17686367034912)"><defs xmlns="http://www.w3.org/2000/svg"><pattern id="pattern_bg" viewBox="0 0 60 60" width="0.05132591958939264" height="0.09630818619582665" patternTransform="scale(0.5 0.5) translate(486.0962129001964 87.60884435685335)"><line class="bg" x1="0" y1="0" x2="60" y2="0"/><line class="bg" x1="0" y1="0" y2="60" x2="0"/><line class="bg-sub" x1="0" y1="15" x2="60" y2="15"/><line class="bg-sub" y1="0" x1="15" y2="60" x2="15"/><line class="bg-sub" x1="0" y1="30" x2="60" y2="30"/><line class="bg-sub" y1="0" x1="30" y2="60" x2="30"/><line class="bg-sub" x1="0" y1="45" x2="60" y2="45"/><line class="bg-sub" y1="0" x1="45" y2="60" x2="45"/></pattern></defs><g xmlns="http://www.w3.org/2000/svg" class="bg" style="visibility: hidden;"><rect x="-486.0962129001964" y="-87.60884435685335" width="2338" height="1246" style="fill: url(&quot;#pattern_bg&quot;);"/></g><g xmlns="http://www.w3.org/2000/svg" class="u" data-layer="Layer 1" style="visibility: visible;"><rect x="420" y="345" class="" style="stroke: rgb(0, 0, 0); fill: rgba(0, 0, 0, 0); stroke-width: 2; stroke-linejoin: round;" width="270" height="210" data-mut=""/><rect x="555" y="465" class="" style="stroke: rgb(0, 0, 0); fill: rgba(0, 0, 0, 0); stroke-width: 2; stroke-linejoin: round;" width="300" height="180" data-mut=""/><text x="885" y="553" fill="rgba(0, 0, 0, 1)" stroke="rgba(0, 0, 0, 0)" data-mut="" style="font-family: sans-serif; font-size: 52px;"><tspan x="885" dy="0em" data-mut="">P'</tspan></text><text x="690" y="703" fill="rgba(0, 0, 0, 1)" stroke="rgba(0, 0, 0, 0)" data-mut="" style="font-family: sans-serif; font-size: 52px;"><tspan x="690" dy="0em" data-mut="">Q'</tspan></text><text x="360" y="463" fill="rgba(0, 0, 0, 1)" stroke="rgba(0, 0, 0, 0)" data-mut="" style="font-family: sans-serif; font-size: 52px;"><tspan x="360" dy="0em" data-mut="">P</tspan></text><text x="525" y="343" fill="rgba(0, 0, 0, 1)" stroke="rgba(0, 0, 0, 0)" data-mut="" style="font-family: sans-serif; font-size: 52px;"><tspan x="525" dy="0em" data-mut="">Q</tspan></text><path d="M 555 495 L 585 465 L 615 465 L 555 525 L 555 555 L 645 465 L 675 465 L 585 555 L 615 555 L 690 480 L 690 510 L 645 555 L 675 555 L 690 540 L 690 465 L 555 465 L 555 555 L 690 555 L 690 510" class="" stroke="rgba(20, 136, 203, 1)" style="fill: rgba(0, 0, 0, 0); stroke-width: 2; stroke-linejoin: round;"/><path d="M 555 465 L 555 555 L 690 555 L 690 465 Z" class="" stroke="rgba(0, 0, 0, 1)" style="fill: rgba(0, 0, 0, 0); stroke-width: 2; stroke-linejoin: round;"/></g><g xmlns="http://www.w3.org/2000/svg" class="u current" data-layer="Layer 2" style="visibility: visible;"/></g></svg>