<?xml version="1.0" standalone="no"?><svg width="696.768310546875" height="558.1346912384033" xmlns="http://www.w3.org/2000/svg" xmlns:xlink="http://www.w3.org/1999/xlink"><style>line.bg { stroke: rgba(3, 148, 172, 0.7); stroke-width: 1; }circle.bg { fill: rgba(100, 220, 240, 0.7); }line.bg-sub { stroke: rgba(140, 240, 240, 0.5); stroke-width: 1; }g.u rect, g.u path, g.u circle { fill: none; stroke-width: 2; stroke-linejoin: round; }pattern line { vector-effect: non-scaling-stroke; }.zoomed-out pattern line { vector-effect: none; }text { stroke-width: 0; font-family: sans-serif; }text tspan { vector-effect: non-scaling-stroke; white-space: pre; }.ui-dark { background: rgb(51, 51, 51); }.ui-dark line.bg { stroke: rgba(172, 232, 242, 0.57); stroke-width: 1; }.ui-dark circle.bg { fill: rgba(100, 220, 240, 0.3); }.ui-dark line.bg-sub { stroke: rgba(140, 240, 240, 0.1); stroke-width: 1; }rect.marquee { fill: rgba(234, 255, 231, 0.3); stroke: rgb(98, 137, 95); stroke-width: 1; stroke-dasharray: 4; vector-effect: non-scaling-stroke; }rect.highlight { fill: blue; opacity: 0.5; }.bg rect { stroke: rgba(3, 148, 172, 0.7); stroke-width: 1; }</style><defs class="ic"></defs><defs><marker id="arrowhead" viewBox="0 0 15 15" refX="5" refY="5" markerWidth="5" markerHeight="5" orient="auto-start-reverse"><path stroke="context-stroke" fill="context-stroke" d="M 0 0 L 10 5 L 0 10 z"></path></marker></defs><g transform="translate(-198.87197875976562, -203.734845161438)"><defs xmlns="http://www.w3.org/2000/svg"><pattern id="pattern_bg" viewBox="0 0 60 60" width="0.05132591958939264" height="0.09630818619582665" patternTransform="scale(0.5 0.5) translate(521.7116147955778 98.58046995793615)"><line class="bg" x1="0" y1="0" x2="60" y2="0"/><line class="bg" x1="0" y1="0" y2="60" x2="0"/><line class="bg-sub" x1="0" y1="15" x2="60" y2="15"/><line class="bg-sub" y1="0" x1="15" y2="60" x2="15"/><line class="bg-sub" x1="0" y1="30" x2="60" y2="30"/><line class="bg-sub" y1="0" x1="30" y2="60" x2="30"/><line class="bg-sub" x1="0" y1="45" x2="60" y2="45"/><line class="bg-sub" y1="0" x1="45" y2="60" x2="45"/></pattern></defs><g xmlns="http://www.w3.org/2000/svg" class="bg" style="visibility: hidden;"><rect x="-521.7116147955778" y="-98.58046995793615" width="2338" height="1246" style="fill: url(&quot;#pattern_bg&quot;);"/></g><g xmlns="http://www.w3.org/2000/svg" class="u current" data-layer="Layer 2" style="visibility: visible;"><path d="M 360 390 L 390 360 L 420 360 L 360 420 L 360 450 L 450 360 L 480 360 L 360 480 L 360 510 L 510 360 L 540 360 L 360 540 L 390 540 L 570 360 L 600 360 L 495 465 L 525 465 L 600 390 L 600 420 L 555 465 L 585 465 L 600 450" class="" stroke="rgba(41, 173, 255, 1)" style="fill: rgba(0, 0, 0, 0); stroke-width: 2; stroke-linejoin: round;" data-mut=""/><path d="M 480 480 L 420 540 L 450 540 L 480 510" class="" stroke="rgba(41, 173, 255, 1)" style="fill: rgba(0, 0, 0, 0); stroke-width: 2; stroke-linejoin: round;" data-mut=""/><path d="M 360 465 L 600 465 L 600 435 L 600 360 L 360 360 L 360 435 L 390 465 L 420 465 L 360 405 L 360 375 L 450 465 L 480 465 L 375 360 L 405 360 L 510 465 L 540 465 L 435 360 L 465 360 L 570 465 L 600 465 L 495 360 L 525 360 L 600 435 L 600 405 L 555 360 L 585 360 L 600 375" class="" stroke="rgba(0, 228, 54, 1)" style="fill: rgba(0, 0, 0, 0); stroke-width: 2; stroke-linejoin: round;" data-mut=""/><path d="M 465 465 L 480 480 L 480 510 L 435 465 L 405 465 L 480 540 L 450 540 L 375 465 L 360 465 L 360 480 L 420 540 L 390 540 L 360 510" class="" stroke="rgba(255, 0, 77, 1)" style="fill: rgba(0, 0, 0, 0); stroke-width: 2; stroke-linejoin: round;"/><path d="M 360 465 L 480 465" class="" stroke="rgba(41, 173, 255, 1)" style="fill: rgba(0, 0, 0, 0); stroke-width: 2; stroke-linejoin: round;"/></g><g xmlns="http://www.w3.org/2000/svg" class="u" data-layer="Layer 1" style="visibility: visible;"><rect x="360" y="360" class="" style="stroke: rgb(0, 0, 0); fill: rgba(0, 0, 0, 0); stroke-width: 2; stroke-linejoin: round;" width="240" height="180" data-mut=""/><rect x="480" y="465" class="" style="stroke: rgb(0, 0, 0); fill: rgba(0, 0, 0, 0); stroke-width: 2; stroke-linejoin: round;" width="240" height="135" data-mut=""/><text x="735" y="568" fill="rgba(0, 0, 0, 1)" stroke="rgba(0, 0, 0, 0)" data-mut="" style="font-family: sans-serif; font-size: 52px;"><tspan x="735" dy="0em" data-mut="">P'</tspan></text><text x="585" y="658" fill="rgba(0, 0, 0, 1)" stroke="rgba(0, 0, 0, 0)" data-mut="" style="font-family: sans-serif; font-size: 52px;"><tspan x="585" dy="0em" data-mut="">Q'</tspan></text><text x="450" y="343" fill="rgba(0, 0, 0, 1)" stroke="rgba(0, 0, 0, 0)" data-mut="" style="font-family: sans-serif; font-size: 52px;"><tspan x="450" dy="0em" data-mut="">Q</tspan></text><text x="315" y="478" fill="rgba(0, 0, 0, 1)" stroke="rgba(0, 0, 0, 0)" data-mut="" style="font-family: sans-serif; font-size: 52px; cursor: text;"><tspan x="315" dy="0em" data-mut="">P</tspan></text></g></g></svg>